# xmcd
#
# Track frame offsets:
#	150
#	24620
#	43110
#	60495
#	77940
#	92210
#	111157
#	128215
#	148305
#	164295
#	182815
#	196665
#	211327
#	228077
#	248750
#
# Disc length: 3514 seconds
#
# Revision: 0
# Processed by: cddbd v1.5.1PL2 Copyright (c) Steve Scherf et al.
# Submitted via: audiograbber 1.83.01
#
DISCID=cf0db80f
DTITLE=ламты - пяодосиа
DYEAR=1998
DGENRE=екк поп 
TTITLE0=пяодосиа
TTITLE1=ти лоу веис йамеи 
TTITLE2=еяытас дгкгтгяио 
TTITLE3=жытиа ста пяепеи 
TTITLE4=пуяето жытиа йаи факг 
TTITLE5=ока та яокоциа 
TTITLE6=сглеяа 
TTITLE7=мувта лгм еявесаи 
TTITLE8=латиа пацобоума 
TTITLE9=ацапг се бажтиса 
TTITLE10=ека жеццаяи лоу 
TTITLE11=бяеста ле сема 
TTITLE12=жхимыпояимес ьивакес 
TTITLE13=пыс феис
TTITLE14=лиа мувта ацяупмиас
EXTD=
EXTT0=
EXTT1=
EXTT2=
EXTT3=
EXTT4=
EXTT5=
EXTT6=
EXTT7=
EXTT8=
EXTT9=
EXTT10=
EXTT11=
EXTT12=
EXTT13=
EXTT14=
PLAYORDER=
